<mxfile host="app.diagrams.net" modified="2022-06-25T06:41:33.475Z" agent="5.0 (Windows NT 10.0; Win64; x64) AppleWebKit/537.36 (KHTML, like Gecko) Chrome/102.0.0.0 Safari/537.36" etag="T-Mlxr2PSCrdWwdjCd1C" version="20.0.3" type="github">
  <diagram id="dV89EFu6dsjNoOKtN1sY" name="Page-1">
    <mxGraphModel dx="1140" dy="644" grid="1" gridSize="10" guides="1" tooltips="1" connect="1" arrows="1" fold="1" page="1" pageScale="1" pageWidth="827" pageHeight="1169" math="0" shadow="0">
      <root>
        <mxCell id="0" />
        <mxCell id="1" parent="0" />
        <mxCell id="3SqgVJNA4dLTiPNuPLmU-5" style="edgeStyle=orthogonalEdgeStyle;rounded=0;orthogonalLoop=1;jettySize=auto;html=1;exitX=0.5;exitY=1;exitDx=0;exitDy=0;entryX=0.5;entryY=0;entryDx=0;entryDy=0;fontSize=16;strokeWidth=2;" edge="1" parent="1" source="3SqgVJNA4dLTiPNuPLmU-1" target="3SqgVJNA4dLTiPNuPLmU-2">
          <mxGeometry relative="1" as="geometry" />
        </mxCell>
        <mxCell id="3SqgVJNA4dLTiPNuPLmU-1" value="&lt;font style=&quot;font-size: 16px;&quot;&gt;建国之初：先化后改&lt;/font&gt;" style="rounded=1;whiteSpace=wrap;html=1;" vertex="1" parent="1">
          <mxGeometry x="80" y="160" width="200" height="40" as="geometry" />
        </mxCell>
        <mxCell id="3SqgVJNA4dLTiPNuPLmU-2" value="&lt;font style=&quot;font-size: 16px;&quot;&gt;后来：边化边改&lt;/font&gt;" style="rounded=1;whiteSpace=wrap;html=1;" vertex="1" parent="1">
          <mxGeometry x="80" y="280" width="200" height="40" as="geometry" />
        </mxCell>
        <mxCell id="3SqgVJNA4dLTiPNuPLmU-3" value="&lt;p style=&quot;line-height: 1;&quot;&gt;&lt;/p&gt;&lt;div style=&quot;text-align: center;&quot;&gt;这种认识上的改变，主要有两方面的原因∶&lt;/div&gt;&lt;div&gt;&lt;ol style=&quot;line-height: 1.4;&quot;&gt;&lt;li&gt;随着民主革命遗留任务的彻底完成，&lt;span style=&quot;background-color: initial;&quot;&gt;国内的阶级关系和主要矛盾发生了深刻的变化。&lt;/span&gt;&lt;/li&gt;&lt;li&gt;随着国民经济的恢复和初步发展，中国社会的经济成分（即生产关系）发生了重要变&lt;span style=&quot;background-color: initial;&quot;&gt;化。&lt;/span&gt;&lt;/li&gt;&lt;/ol&gt;&lt;/div&gt;&lt;p&gt;&lt;/p&gt;" style="rounded=1;whiteSpace=wrap;html=1;fontSize=16;align=left;strokeWidth=1;" vertex="1" parent="1">
          <mxGeometry x="320" y="160" width="370" height="160" as="geometry" />
        </mxCell>
      </root>
    </mxGraphModel>
  </diagram>
</mxfile>
